<?xml version="1.0" encoding="utf-8"?>
<!-- Generator: Adobe Illustrator 16.0.0, SVG Export Plug-In . SVG Version: 6.00 Build 0)  -->
<!DOCTYPE svg PUBLIC "-//W3C//DTD SVG 1.1//EN" "http://www.w3.org/Graphics/SVG/1.1/DTD/svg11.dtd">
<svg version="1.1"
	 id="svg4083" xmlns:dc="http://purl.org/dc/elements/1.1/" xmlns:cc="http://creativecommons.org/ns#" xmlns:rdf="http://www.w3.org/1999/02/22-rdf-syntax-ns#" xmlns:svg="http://www.w3.org/2000/svg" xmlns:sodipodi="http://sodipodi.sourceforge.net/DTD/sodipodi-0.dtd" xmlns:inkscape="http://www.inkscape.org/namespaces/inkscape" sodipodi:docname="New document 13" inkscape:version="0.48+devel r9772"
	 xmlns="http://www.w3.org/2000/svg" xmlns:xlink="http://www.w3.org/1999/xlink" x="0px" y="0px" width="744px" height="744px"
	 viewBox="0.547 157.181 744 744" enable-background="new 0.547 157.181 744 744" xml:space="preserve">
<sodipodi:namedview  showgrid="false" inkscape:cy="526.18109" inkscape:cx="557.54396" inkscape:zoom="0.66136926" borderopacity="1.0" bordercolor="#666666" pagecolor="#ffffff" id="base" inkscape:window-maximized="1" inkscape:window-y="1" inkscape:current-layer="layer1" inkscape:document-units="px" inkscape:pageopacity="0.0" inkscape:window-x="0" inkscape:window-height="851" inkscape:window-width="1440" inkscape:pageshadow="2">
	</sodipodi:namedview>
<g id="layer1" inkscape:label="Layer 1" inkscape:groupmode="layer">
	<g id="g4139">
		<path id="path4125" inkscape:connector-curvature="0" fill="#333333" d="M287.809,855.486c3.966-13.088,7.69-45.211,8.276-71.385
			l1.066-47.592l30.057,0.486c33.232,0.539,82.656,18.58,82.656,30.174c0,10.354-67.484,79.311-94.726,96.791
			C282.409,884.962,279.18,883.96,287.809,855.486L287.809,855.486z"/>
		<path id="path4123" inkscape:connector-curvature="0" fill="#F8A900" d="M402.35,715.273
			c-11.021-4.211-39.762-8.756-63.871-10.102l-43.833-2.449v-17.146c0-21.965,16.658-39.074,45.762-47
			c25.366-6.908,108.008-3.277,116.399,5.113c7.473,7.473-16.521,77.479-26.904,78.5C425.77,722.595,413.372,719.482,402.35,715.273
			L402.35,715.273z"/>
		<path id="path4121" inkscape:connector-curvature="0" fill="#333333" d="M295.096,606.316
			c55.307-77.242,196.903-138.708,302.325-131.235c51.016,3.616,75.145,11.49,96.271,31.416
			c13.691,12.911,16.742,19.529,16.742,36.321c0,16.705-3.203,23.732-17.182,37.711c-36.416,36.416-104.258,44.109-240.807,27.309
			c-84.968-10.455-113.519-7.07-169.874,20.137C280.063,629.185,285.699,619.439,295.096,606.316L295.096,606.316z"/>
		<path id="path4119" inkscape:connector-curvature="0" fill="#F8A900" d="M277.14,570.843
			c15.97-73.857,62.45-156.045,123.138-217.742c51.076-51.922,75.264-69.954,132.658-98.899
			c120.428-60.73,218.717-40.866,197.4,39.895c-4.277,16.211-14.143,29.926-39.449,54.848
			c-41.031,40.408-88.111,64.396-185.842,94.687c-109.707,34.003-158.512,61.175-207.256,115.389
			C275.755,583.529,274.205,584.417,277.14,570.843z"/>
		<path id="path4115" inkscape:connector-curvature="0" fill="#333333" d="M149.325,489.793
			c-12.089-39.048-14.251-98.522-4.736-130.281c7.578-25.293,5.223-28.967-31.45-49.041c-20.4-11.167-35.215-15.052-65.303-17.124
			c-45.749-3.151-50.551-12.859-6.116-12.364c32.551,0.363,72.506,15.794,99.82,38.552l14.711,12.257l12.457-14.804
			c12.43-14.772,12.437-14.841,3.229-31.94c-5.076-9.425-20.191-27.39-33.59-39.923C116.791,224.962,99.69,215.27,47.93,193.88
			c-15.558-6.43-17.851-14.678-5.407-19.453c12.469-4.785,65.589,24.756,95.058,52.863c14.06,13.41,31.672,34.806,39.138,47.546
			L190.293,298l15.858-8.332c23.302-12.243,64.332-11.512,81.853,1.458c55.701,41.233,48.029,112.561-18.756,174.393
			c-28.009,25.932-84.255,58.088-101.605,58.088C162.325,523.607,156.416,512.697,149.325,489.793L149.325,489.793z"/>
	</g>
</g>
</svg>
